# xmcd
#
# Track frame offsets: 
#        150
#        17533
#        36729
#        58599
#        77918
#        100146
#        123023
#        141089
#        165889
#        188746
#        206418
#        227231
#        251702
#        270701
#        293054
#
# Disc length: 4133 seconds
#
# Revision: 0
# Processed by: cddbd v1.5.2PL0 Copyright (c) Steve Scherf et al.
# Submitted via: ExactAudioCopy v0.95a5
#
DISCID=cc10230f
DTITLE=莫尔根 - 察汗卓尔
DYEAR=1900
DGENRE=Folk
TTITLE0=察汗卓尔(汉语)
TTITLE1=富饶辽阔的阿拉善(蒙语)
TTITLE2=乌兰巴托之夜(蒙汉语)
TTITLE3=母亲(汉语)
TTITLE4=我的父亲是牧马人(蒙语)
TTITLE5=可爱的鄂托克(汉语)
TTITLE6=鸿雁(蒙汉语)
TTITLE7=呼伦贝尔大草原(汉语)
TTITLE8=月光下(蒙汉语)
TTITLE9=黄鬃马(蒙古长调)
TTITLE10=天边(汉语)
TTITLE11=草原迎宾曲(汉语)
TTITLE12=吉祥的阿尔巴斯(蒙语)
TTITLE13=敖包相会(蒙汉语)
TTITLE14=察汗卓尔(蒙语)
EXTD=
EXTT0=
EXTT1=
EXTT2=
EXTT3=
EXTT4=
EXTT5=
EXTT6=
EXTT7=
EXTT8=
EXTT9=
EXTT10=
EXTT11=
EXTT12=
EXTT13=
EXTT14=
PLAYORDER=
